<svg width="1600" height="220" viewBox="0 0 1600 220" fill="none" xmlns="http://www.w3.org/2000/svg">
  <g fill="#003d25">
    <path d="M0 178L52 176L104 173L156 170L208 171L260 173L312 175L364 176L416 173L468 166L500 160L524 147L548 134L572 128L594 130L612 140L628 154L640 164L652 171L670 168L688 156L702 140L714 120L728 101L744 88L768 76L796 69L828 67L860 63L888 54L910 42L924 26L942 39L952 62L964 77L980 82L1004 84L1038 87L1068 95L1096 109L1128 126L1160 141L1194 154L1234 163L1278 169L1324 173L1372 175L1420 176L1468 177L1516 179L1560 180L1600 181V220H0V178Z"/>
    <path d="M471 182L488 176L506 160L520 142L542 131L566 126L588 129L604 140L614 156L622 170L638 176L654 171L666 157L678 139L690 116L702 98L718 85L736 81L752 89L764 102L774 116L784 114L792 102L798 83L806 58L818 44L832 50L839 67L843 91L847 107L856 111L871 106L895 91L922 84L947 86L970 96L984 110L992 126L999 144L1010 159L1026 171L1046 178L1038 184H471V182Z"/>
    <path d="M768 118L784 104L799 83L807 63L819 52L831 60L837 79L839 100L844 116L856 121L871 115L884 102L900 92L914 90L929 95L936 104L932 117L916 121L894 125L870 128L845 133L820 140L796 146L777 144L764 135L768 118Z"/>
    <path d="M731 92L744 85L760 84L774 90L780 100L774 112L760 119L745 118L733 109L729 99L731 92Z"/>
    <path d="M900 140L916 135L936 136L952 144L958 156L954 168L940 176L918 178L900 172L892 160L894 149L900 140Z"/>
    <path d="M340 180L351 171L369 161L390 156L410 158L422 166L426 175L420 183H340V180Z"/>
    <path d="M1123 178L1140 172L1157 162L1178 158L1198 161L1210 169L1215 178H1123Z"/>
    <rect y="178" width="1600" height="42"/>
  </g>
</svg>
