<svg width="72" height="72" viewBox="0 0 72 72" fill="none" xmlns="http://www.w3.org/2000/svg">
  <circle cx="36" cy="36" r="34" fill="#F4EFE3"/>
  <path d="M14 33C17.2 22.2 26 16 36 16C46 16 54.8 22.2 58 33H14Z" fill="#005F39"/>
  <path d="M14 33C16.4 33 17.7 34.4 18.9 35.7C20 36.9 21 38 22.8 38C24.6 38 25.6 36.9 26.7 35.7C27.9 34.4 29.2 33 31.6 33C34 33 35.3 34.4 36.5 35.7C37.6 36.9 38.6 38 40.4 38C42.2 38 43.2 36.9 44.3 35.7C45.5 34.4 46.8 33 49.2 33C51.6 33 52.9 34.4 54.1 35.7C55.2 36.9 56.2 38 58 38V33H14Z" fill="#008751"/>
  <path d="M36 20V46" stroke="#005F39" stroke-width="3.5" stroke-linecap="round"/>
  <path d="M36 46V50C36 54.4 38.3 57 41.8 57C44 57 45.9 55.9 47 53.9" stroke="#D71920" stroke-width="3.5" stroke-linecap="round"/>
  <path d="M18 33C19.2 33 20 33.7 20.9 34.7C22 35.9 23.3 37.3 25.7 37.3C28.1 37.3 29.4 35.9 30.5 34.7C31.4 33.7 32.2 33 33.4 33" stroke="#F4EFE3" stroke-width="2.2" stroke-linecap="round"/>
  <path d="M38.6 33C39.8 33 40.6 33.7 41.5 34.7C42.6 35.9 43.9 37.3 46.3 37.3C48.7 37.3 50 35.9 51.1 34.7C52 33.7 52.8 33 54 33" stroke="#F4EFE3" stroke-width="2.2" stroke-linecap="round"/>
</svg>
